<?xml version="1.0" encoding="utf-8"?>
<!-- Generator: Adobe Illustrator 19.0.0, SVG Export Plug-In . SVG Version: 6.00 Build 0)  -->
<svg version="1.1" id="Layer_1" xmlns="http://www.w3.org/2000/svg" xmlns:xlink="http://www.w3.org/1999/xlink" x="0px" y="0px"
	 viewBox="0 0 1000 1000" style="enable-background:new 0 0 1000 1000;" xml:space="preserve">
<style type="text/css">
	.st0{fill:#95B4A4;}
	.st1{fill:none;}
</style>
<path id="XMLID_14_" class="st0" d="M702.9,596.4c28.2,0,52.4-21,55.6-48.4c1.6-15.3-3.2-29.8-13.7-41.1
	c-10.5-11.3-25-17.7-39.5-17.7c-10.5,0-19.3-6.4-24.2-16.1c-11.3-24.2-35.5-40.3-62.1-40.3H510.3l-19.3-53.2
	c-4-10.5-13.7-16.9-25-16.9h-64.5c-14.5,0-26.6,12.1-26.6,26.6v44.3h-59.7l-83.8-91.1H94.2l114.5,205.6
	c16.1,29.8,47.6,48.4,81.4,48.4h76.6v54.8c0,15.3,12.9,28.2,28.2,28.2h71.8c12.1,0,22.6-7.3,26.6-18.5l24.2-64.5H702.9z M399,388.4
	c0-1.6,0.8-2.4,2.4-2.4h64.5c0.8,0,1.6,0.8,2.4,1.6l16.9,45.1H399V388.4z M470.8,652.1c-0.8,1.6-2.4,2.4-4,2.4H395c-2.4,0-4-1.6-4-4
	V527.1c0-6.4-5.6-12.1-12.1-12.1c-6.4,0-12.1,5.6-12.1,12.1v46h-76.6c-25,0-48.4-13.7-60.5-36.3l-94.3-169.3H220l83,90.3h314.4
	c17.7,0,33.1,10.5,40.3,25.8c8.1,18.5,26.6,30.6,46,30.6c8.1,0,16.1,3.2,21.8,9.7s8.1,14.5,7.3,22.6c-1.6,15.3-15.3,26.6-31.4,26.6
	H524l15.3-41.1c2.4-6.4-0.8-12.9-7.3-15.3s-12.9,0.8-15.3,7.3L470.8,652.1z"/>
<path id="XMLID_11_" class="st0" d="M203.3,284.5L203.3,284.5h238l0,0c21.3,0,41.5-12.3,50.5-32.6c9-19.1,6.7-41.5-6.7-58.4l0,0
	c-1.1-1.1-1.1-2.2-2.2-2.2c-1.1,0-2.2-2.2-2.2-2.2c-6.7-6.7-15.7-11.2-24.7-13.5c2.2-29.2-6.7-56.1-25.8-79.7
	c-1.1-2.2-3.4-4.5-5.6-5.6c-2.2-2.2-3.4-3.4-5.6-5.6c-29.2-28.1-67.4-38.2-106.7-28.1c-37,9-67.4,35.9-80.8,70.7
	c-30.3-12.3-62.9-6.7-86.4,15.7c-1.1,1.1-2.2,2.2-3.4,3.4c-1.1,1.1-2.2,2.2-3.4,4.5c-20.2,23.6-23.6,56.1-10.1,85.3
	C142.7,266.5,170.7,284.5,203.3,284.5z M165.1,173.3c1.1-1.1,1.1-2.2,2.2-2.2c1.1-1.1,1.1-2.2,2.2-2.2c18-16.8,39.3-14.6,53.9-6.7
	c6.7,3.4,15.7,4.5,23.6,1.1c6.7-3.4,12.3-9,15.7-16.8c9-26.9,31.4-48.3,59.5-56.1c26.9-6.7,53.9,0,74.1,19.1
	c1.1,1.1,3.4,3.4,4.5,4.5c1.1,1.1,2.2,3.4,3.4,4.5c18,22.5,19.1,44.9,16.8,60.6c-1.1,6.7,1.1,14.6,5.6,20.2s11.2,9,18,10.1
	c4.5,0,7.9,2.2,11.2,5.6l2.2,2.2c7.9,9,4.5,18,2.2,22.5c-3.4,6.7-10.1,12.3-20.2,12.3l0,0h-238l0,0c-22.5,0-38.2-14.6-43.8-28.1
	C150.5,205.9,152.8,187.9,165.1,173.3z"/>
<path id="XMLID_x5F_1_x5F_" class="st1" d="M605.5,248.2c0,0,793.1,408.5-262,608.1"/>
<text id="XMLID_2_"><textPath  xlink:href="#XMLID_x5F_1_x5F_" startOffset="1.6602%">
<tspan  style="fill:#E4C5B5; font-family:'Lato-Bold'; font-size:129.2148px;">Paseos a Europa</tspan></textPath>
</text>
</svg>
